<mxfile host="app.diagrams.net" modified="2023-01-04T17:57:05.201Z" agent="5.0 (Windows NT 10.0; Win64; x64) AppleWebKit/537.36 (KHTML, like Gecko) Chrome/108.0.0.0 Safari/537.36" etag="7289eBruWuScdKto-ZA7" version="20.8.0" type="github">
  <diagram id="v7CkBEEUugVfoqJjmXaO" name="Seite-1">
    <mxGraphModel dx="2261" dy="916" grid="1" gridSize="10" guides="1" tooltips="1" connect="1" arrows="1" fold="1" page="1" pageScale="1" pageWidth="827" pageHeight="1169" math="0" shadow="0">
      <root>
        <mxCell id="0" />
        <mxCell id="1" parent="0" />
        <mxCell id="ebU4zzICMcsj_J8ZaqAX-18" style="edgeStyle=orthogonalEdgeStyle;rounded=0;orthogonalLoop=1;jettySize=auto;html=1;fontSize=16;" parent="1" source="ebU4zzICMcsj_J8ZaqAX-5" target="ebU4zzICMcsj_J8ZaqAX-13" edge="1">
          <mxGeometry relative="1" as="geometry" />
        </mxCell>
        <mxCell id="ebU4zzICMcsj_J8ZaqAX-5" value="&lt;font style=&quot;font-size: 13px;&quot;&gt;ingress.logs.journald&lt;/font&gt;" style="strokeWidth=1;outlineConnect=0;dashed=0;align=center;html=1;fontSize=8;shape=mxgraph.eip.dataChannel;verticalLabelPosition=bottom;labelBackgroundColor=#ffffff;verticalAlign=top;" parent="1" vertex="1">
          <mxGeometry x="190" y="125" width="100" height="20" as="geometry" />
        </mxCell>
        <mxCell id="-PrfcAZCqRMkJN6iSpg1-5" style="edgeStyle=orthogonalEdgeStyle;rounded=0;orthogonalLoop=1;jettySize=auto;html=1;entryX=0;entryY=0.5;entryDx=2.7;entryDy=0;entryPerimeter=0;" edge="1" parent="1" source="ebU4zzICMcsj_J8ZaqAX-13" target="ebU4zzICMcsj_J8ZaqAX-21">
          <mxGeometry relative="1" as="geometry" />
        </mxCell>
        <mxCell id="ebU4zzICMcsj_J8ZaqAX-13" value="JornalD Converter" style="shape=process;whiteSpace=wrap;html=1;backgroundOutline=1;fontSize=8;" parent="1" vertex="1">
          <mxGeometry x="360" y="105" width="120" height="60" as="geometry" />
        </mxCell>
        <mxCell id="ebU4zzICMcsj_J8ZaqAX-16" style="edgeStyle=orthogonalEdgeStyle;rounded=0;orthogonalLoop=1;jettySize=auto;html=1;entryX=0;entryY=0.5;entryDx=2.7;entryDy=0;entryPerimeter=0;fontSize=16;" parent="1" source="ebU4zzICMcsj_J8ZaqAX-15" target="ebU4zzICMcsj_J8ZaqAX-5" edge="1">
          <mxGeometry relative="1" as="geometry" />
        </mxCell>
        <mxCell id="-PrfcAZCqRMkJN6iSpg1-4" style="edgeStyle=orthogonalEdgeStyle;rounded=0;orthogonalLoop=1;jettySize=auto;html=1;entryX=0.5;entryY=0;entryDx=0;entryDy=0;" edge="1" parent="1" source="ebU4zzICMcsj_J8ZaqAX-15" target="-PrfcAZCqRMkJN6iSpg1-3">
          <mxGeometry relative="1" as="geometry" />
        </mxCell>
        <mxCell id="ebU4zzICMcsj_J8ZaqAX-15" value="&lt;font style=&quot;font-size: 16px;&quot;&gt;Vector &lt;/font&gt;&lt;font style=&quot;font-size: 16px;&quot;&gt;Logshipper&lt;br&gt;&lt;br&gt;&lt;/font&gt;" style="rounded=1;whiteSpace=wrap;html=1;absoluteArcSize=1;arcSize=14;strokeWidth=2;fontSize=8;" parent="1" vertex="1">
          <mxGeometry x="-10" y="100" width="100" height="70" as="geometry" />
        </mxCell>
        <mxCell id="ebU4zzICMcsj_J8ZaqAX-21" value="&lt;font style=&quot;font-size: 11px;&quot;&gt;*chan process&lt;/font&gt;" style="strokeWidth=2;strokeColor=#000000;dashed=0;align=center;html=1;fontSize=8;shape=mxgraph.eip.messageChannel;" parent="1" vertex="1">
          <mxGeometry x="540" y="134" width="120" height="20" as="geometry" />
        </mxCell>
        <mxCell id="ebU4zzICMcsj_J8ZaqAX-25" value="" style="edgeStyle=elbowEdgeStyle;strokeWidth=2;rounded=0;endArrow=block;startArrow=block;startSize=10;endSize=10;dashed=0;html=1;strokeColor=#808080;fontSize=13;" parent="1" source="ebU4zzICMcsj_J8ZaqAX-26" target="ebU4zzICMcsj_J8ZaqAX-21" edge="1">
          <mxGeometry relative="1" as="geometry">
            <mxPoint x="630" y="90" as="sourcePoint" />
          </mxGeometry>
        </mxCell>
        <mxCell id="ebU4zzICMcsj_J8ZaqAX-28" style="edgeStyle=orthogonalEdgeStyle;rounded=0;orthogonalLoop=1;jettySize=auto;html=1;entryX=0;entryY=0.5;entryDx=2.7;entryDy=0;entryPerimeter=0;fontSize=14;" parent="1" source="ebU4zzICMcsj_J8ZaqAX-26" target="ebU4zzICMcsj_J8ZaqAX-27" edge="1">
          <mxGeometry relative="1" as="geometry" />
        </mxCell>
        <mxCell id="ebU4zzICMcsj_J8ZaqAX-26" value="Loganalyser" style="shape=process;whiteSpace=wrap;html=1;backgroundOutline=1;fontSize=11;" parent="1" vertex="1">
          <mxGeometry x="730" y="130" width="120" height="60" as="geometry" />
        </mxCell>
        <mxCell id="ebU4zzICMcsj_J8ZaqAX-30" style="edgeStyle=orthogonalEdgeStyle;rounded=0;orthogonalLoop=1;jettySize=auto;html=1;entryX=0;entryY=0.5;entryDx=0;entryDy=0;fontSize=14;" parent="1" source="ebU4zzICMcsj_J8ZaqAX-27" target="ebU4zzICMcsj_J8ZaqAX-29" edge="1">
          <mxGeometry relative="1" as="geometry" />
        </mxCell>
        <mxCell id="ebU4zzICMcsj_J8ZaqAX-27" value="&lt;font style=&quot;font-size: 14px;&quot;&gt;egress.logs.ecs&lt;/font&gt;" style="strokeWidth=1;outlineConnect=0;dashed=0;align=center;html=1;fontSize=8;shape=mxgraph.eip.dataChannel;verticalLabelPosition=bottom;labelBackgroundColor=#ffffff;verticalAlign=top;" parent="1" vertex="1">
          <mxGeometry x="910" y="150" width="100" height="20" as="geometry" />
        </mxCell>
        <mxCell id="ebU4zzICMcsj_J8ZaqAX-32" style="edgeStyle=orthogonalEdgeStyle;rounded=0;orthogonalLoop=1;jettySize=auto;html=1;fontSize=14;" parent="1" source="ebU4zzICMcsj_J8ZaqAX-29" edge="1">
          <mxGeometry relative="1" as="geometry">
            <mxPoint x="1240" y="160" as="targetPoint" />
          </mxGeometry>
        </mxCell>
        <mxCell id="ebU4zzICMcsj_J8ZaqAX-29" value="Lokishipper" style="shape=process;whiteSpace=wrap;html=1;backgroundOutline=1;fontSize=14;" parent="1" vertex="1">
          <mxGeometry x="1060" y="130" width="110" height="60" as="geometry" />
        </mxCell>
        <mxCell id="ebU4zzICMcsj_J8ZaqAX-31" value="" style="aspect=fixed;html=1;points=[];align=center;image;fontSize=12;image=img/lib/azure2/other/Grafana.svg;" parent="1" vertex="1">
          <mxGeometry x="1241" y="134" width="68" height="52.800000000000004" as="geometry" />
        </mxCell>
        <object placeholders="1" c4Name="logunifier" c4Type="SystemScopeBoundary" c4Application=" " label="&lt;font style=&quot;font-size: 16px&quot;&gt;&lt;b&gt;&lt;div style=&quot;text-align: left&quot;&gt;%c4Name%&lt;/div&gt;&lt;/b&gt;&lt;/font&gt;&lt;div style=&quot;text-align: left&quot;&gt;[%c4Application%]&lt;/div&gt;" id="ebU4zzICMcsj_J8ZaqAX-35">
          <mxCell style="rounded=1;fontSize=11;whiteSpace=wrap;html=1;dashed=1;arcSize=20;fillColor=none;strokeColor=#666666;fontColor=#333333;labelBackgroundColor=none;align=left;verticalAlign=bottom;labelBorderColor=none;spacingTop=0;spacing=10;dashPattern=8 4;metaEdit=1;rotatable=0;perimeter=rectanglePerimeter;noLabel=0;labelPadding=0;allowArrows=0;connectable=0;expand=0;recursiveResize=0;editable=1;pointerEvents=0;absoluteArcSize=1;points=[[0.25,0,0],[0.5,0,0],[0.75,0,0],[1,0.25,0],[1,0.5,0],[1,0.75,0],[0.75,1,0],[0.5,1,0],[0.25,1,0],[0,0.75,0],[0,0.5,0],[0,0.25,0]];" parent="1" vertex="1">
            <mxGeometry x="110" y="55.4" width="1100" height="264.6" as="geometry" />
          </mxCell>
        </object>
        <mxCell id="-PrfcAZCqRMkJN6iSpg1-3" value="Journald" style="rounded=0;whiteSpace=wrap;html=1;" vertex="1" parent="1">
          <mxGeometry x="-20" y="220" width="120" height="60" as="geometry" />
        </mxCell>
      </root>
    </mxGraphModel>
  </diagram>
</mxfile>
